<svg width="25" height="24" viewBox="0 0 25 24" fill="none" xmlns="http://www.w3.org/2000/svg">
<path d="M8.5 15C11.1924 15 13.375 12.8174 13.375 10.125C13.375 7.43261 11.1924 5.25 8.5 5.25C5.80761 5.25 3.625 7.43261 3.625 10.125C3.625 12.8174 5.80761 15 8.5 15Z" stroke="white" stroke-width="1.5" stroke-miterlimit="10"/>
<path d="M14.8199 5.43173C15.4905 5.24281 16.1937 5.19978 16.8822 5.30552C17.5708 5.41126 18.2287 5.66333 18.8116 6.04475C19.3945 6.42616 19.889 6.92807 20.2616 7.51666C20.6342 8.10525 20.8764 8.76685 20.9718 9.45692C21.0672 10.147 21.0136 10.8495 20.8146 11.5171C20.6157 12.1847 20.276 12.8019 19.8184 13.3272C19.3608 13.8524 18.7959 14.2735 18.1619 14.5621C17.5279 14.8507 16.8393 15.0001 16.1427 15.0001" stroke="white" stroke-width="1.5" stroke-linecap="round" stroke-linejoin="round"/>
<path d="M1.74963 18.5059C2.51101 17.4229 3.52178 16.539 4.69662 15.9288C5.87145 15.3186 7.17586 15.0001 8.49971 15C9.82356 14.9999 11.128 15.3184 12.3029 15.9285C13.4778 16.5386 14.4886 17.4225 15.2501 18.5054" stroke="white" stroke-width="1.5" stroke-linecap="round" stroke-linejoin="round"/>
<path d="M16.1427 15C17.4667 14.999 18.7714 15.3171 19.9464 15.9273C21.1213 16.5375 22.132 17.4218 22.8927 18.5054" stroke="white" stroke-width="1.5" stroke-linecap="round" stroke-linejoin="round"/>
</svg>
