<svg width="25" height="24" viewBox="0 0 25 24" fill="none" xmlns="http://www.w3.org/2000/svg">
<path d="M3 20.25H16.5" stroke="white" stroke-width="1.5" stroke-linecap="round" stroke-linejoin="round"/>
<path d="M2.3369 13.1593L5.87084 16.4724C6.34169 16.9138 6.94233 17.1916 7.5836 17.2646C8.22487 17.3375 8.87257 17.2017 9.43053 16.8773L23.625 8.62472L21.8775 6.48897C21.4242 5.93489 20.7877 5.5612 20.0829 5.43538C19.3782 5.30955 18.6517 5.4399 18.0346 5.80288L13.875 8.24972L8.24998 6.37472L6.7032 7.03763C6.58748 7.08722 6.4861 7.16515 6.40842 7.26423C6.33074 7.36331 6.27925 7.48035 6.2587 7.60456C6.23815 7.72878 6.24919 7.85616 6.29083 7.97498C6.33246 8.0938 6.40333 8.20023 6.49691 8.28445L9.37498 10.8747L6.74998 12.3747L4.12498 11.2497L2.55441 11.9228C2.43988 11.9719 2.33938 12.0488 2.262 12.1464C2.18461 12.2441 2.13278 12.3595 2.1112 12.4822C2.08961 12.605 2.09894 12.7311 2.13834 12.8494C2.17775 12.9676 2.24599 13.0741 2.3369 13.1593V13.1593Z" stroke="white" stroke-width="1.5" stroke-linecap="round" stroke-linejoin="round"/>
</svg>
