<svg width="19" height="19" viewBox="0 0 19 19" fill="none" xmlns="http://www.w3.org/2000/svg">
<path d="M11.9995 17.4991V12.9991C11.9995 12.8001 11.9204 12.6094 11.7798 12.4687C11.6391 12.3281 11.4484 12.2491 11.2495 12.2491H8.24945C8.05054 12.2491 7.85977 12.3281 7.71912 12.4687C7.57847 12.6094 7.49945 12.8001 7.49945 12.9991V17.4991C7.49945 17.698 7.42045 17.8888 7.27981 18.0294C7.13918 18.1701 6.94844 18.2491 6.74954 18.2491L2.25009 18.2497C2.15159 18.2498 2.05406 18.2304 1.96305 18.1927C1.87205 18.155 1.78936 18.0998 1.7197 18.0301C1.65005 17.9605 1.5948 17.8778 1.5571 17.7868C1.5194 17.6958 1.5 17.5982 1.5 17.4997V8.83158C1.5 8.72709 1.52183 8.62375 1.5641 8.52819C1.60637 8.43264 1.66814 8.34696 1.74545 8.27667L9.24493 1.45778C9.38299 1.33226 9.56287 1.2627 9.74946 1.2627C9.93605 1.26269 10.1159 1.33223 10.254 1.45775L17.7545 8.27666C17.8318 8.34696 17.8936 8.43264 17.9359 8.5282C17.9782 8.62377 18 8.72711 18 8.83161V17.4997C18 17.5982 17.9806 17.6958 17.9429 17.7868C17.9052 17.8778 17.85 17.9605 17.7803 18.0301C17.7106 18.0998 17.628 18.155 17.5369 18.1927C17.4459 18.2304 17.3484 18.2498 17.2499 18.2497L12.7494 18.2492C12.5505 18.2491 12.3597 18.1701 12.2191 18.0295C12.0785 17.8888 11.9994 17.698 11.9995 17.4991V17.4991Z" stroke="black" stroke-width="1.5" stroke-linecap="round" stroke-linejoin="round"/>
</svg>
