<svg width="25" height="25" viewBox="0 0 25 25" fill="none" xmlns="http://www.w3.org/2000/svg">
<path d="M22.5 6.00244H3C2.58579 6.00244 2.25 6.33823 2.25 6.75244V17.2524C2.25 17.6667 2.58579 18.0024 3 18.0024H22.5C22.9142 18.0024 23.25 17.6667 23.25 17.2524V6.75244C23.25 6.33823 22.9142 6.00244 22.5 6.00244Z" stroke="#09182E" stroke-width="1.5" stroke-linecap="round" stroke-linejoin="round"/>
<path d="M12.75 15.0024C14.4069 15.0024 15.75 13.6593 15.75 12.0024C15.75 10.3456 14.4069 9.00244 12.75 9.00244C11.0931 9.00244 9.75 10.3456 9.75 12.0024C9.75 13.6593 11.0931 15.0024 12.75 15.0024Z" stroke="#09182E" stroke-width="1.5" stroke-linecap="round" stroke-linejoin="round"/>
<path d="M17.25 6.00244L23.25 11.2524" stroke="#09182E" stroke-width="1.5" stroke-linecap="round" stroke-linejoin="round"/>
<path d="M17.25 18.0024L23.25 12.7524" stroke="#09182E" stroke-width="1.5" stroke-linecap="round" stroke-linejoin="round"/>
<path d="M8.25 6.00244L2.25 11.2524" stroke="#09182E" stroke-width="1.5" stroke-linecap="round" stroke-linejoin="round"/>
<path d="M8.25 18.0024L2.25 12.7524" stroke="#09182E" stroke-width="1.5" stroke-linecap="round" stroke-linejoin="round"/>
</svg>
