<svg width="25" height="24" viewBox="0 0 25 24" fill="none" xmlns="http://www.w3.org/2000/svg">
<path d="M16 10.5H8.5C6.84315 10.5 5.5 11.8431 5.5 13.5V14.25C5.5 15.9069 6.84315 17.25 8.5 17.25H16C17.6569 17.25 19 15.9069 19 14.25V13.5C19 11.8431 17.6569 10.5 16 10.5Z" stroke="white" stroke-width="1.5" stroke-linecap="round" stroke-linejoin="round"/>
<path d="M2.5 6.75C2.5 6.15326 2.73705 5.58097 3.15901 5.15901C3.58097 4.73705 4.15326 4.5 4.75 4.5C5.34674 4.5 5.91903 4.73705 6.34099 5.15901C6.76295 5.58097 7 6.15326 7 6.75H17.5C17.5 6.15326 17.7371 5.58097 18.159 5.15901C18.581 4.73705 19.1533 4.5 19.75 4.5C20.3467 4.5 20.919 4.73705 21.341 5.15901C21.7629 5.58097 22 6.15326 22 6.75V14.25C22 15.8413 21.3679 17.3674 20.2426 18.4926C19.1174 19.6179 17.5913 20.25 16 20.25H8.5C6.9087 20.25 5.38258 19.6179 4.25736 18.4926C3.13214 17.3674 2.5 15.8413 2.5 14.25V6.75Z" stroke="white" stroke-width="1.5" stroke-linecap="round" stroke-linejoin="round"/>
<path d="M9.25 13.875C9.25 14.0821 9.08211 14.25 8.875 14.25C8.66789 14.25 8.5 14.0821 8.5 13.875C8.5 13.6679 8.66789 13.5 8.875 13.5C9.08211 13.5 9.25 13.6679 9.25 13.875Z" fill="white" stroke="white" stroke-width="1.5"/>
<path d="M16 13.875C16 14.0821 15.8321 14.25 15.625 14.25C15.4179 14.25 15.25 14.0821 15.25 13.875C15.25 13.6679 15.4179 13.5 15.625 13.5C15.8321 13.5 16 13.6679 16 13.875Z" fill="white" stroke="white" stroke-width="1.5"/>
</svg>
