<svg width="25" height="24" viewBox="0 0 25 24" fill="none" xmlns="http://www.w3.org/2000/svg">
<path d="M15.25 8.625C15.25 8.83211 15.0821 9 14.875 9C14.6679 9 14.5 8.83211 14.5 8.625C14.5 8.41789 14.6679 8.25 14.875 8.25C15.0821 8.25 15.25 8.41789 15.25 8.625Z" fill="white" stroke="white" stroke-width="1.5"/>
<path d="M10 8.625C10 8.83211 9.83211 9 9.625 9C9.41789 9 9.25 8.83211 9.25 8.625C9.25 8.41789 9.41789 8.25 9.625 8.25C9.83211 8.25 10 8.41789 10 8.625Z" fill="white" stroke="white" stroke-width="1.5"/>
<path d="M12.25 12V20.25" stroke="white" stroke-width="1.5" stroke-linecap="round" stroke-linejoin="round"/>
<path d="M23.125 12L1.375 12" stroke="white" stroke-width="1.5" stroke-linecap="round" stroke-linejoin="round"/>
<path d="M19.75 13.5C19.75 15.4891 18.9598 17.3968 17.5533 18.8033C16.1468 20.2098 14.2391 21 12.25 21C10.2609 21 8.35322 20.2098 6.9467 18.8033C5.54018 17.3968 4.75 15.4891 4.75 13.5V10.5C4.75 8.51088 5.54018 6.60322 6.9467 5.1967C8.35322 3.79018 10.2609 3 12.25 3C14.2391 3 16.1468 3.79018 17.5533 5.1967C18.9598 6.60322 19.75 8.51088 19.75 10.5V13.5Z" stroke="white" stroke-width="1.5" stroke-linecap="round" stroke-linejoin="round"/>
<path d="M21.9928 17.625L19.2983 16.0693" stroke="white" stroke-width="1.5" stroke-linecap="round" stroke-linejoin="round"/>
<path d="M21.9928 6.375L19.2983 7.93066" stroke="white" stroke-width="1.5" stroke-linecap="round" stroke-linejoin="round"/>
<path d="M2.5072 6.375L5.20169 7.93066" stroke="white" stroke-width="1.5" stroke-linecap="round" stroke-linejoin="round"/>
<path d="M2.5072 17.625L5.20167 16.0693" stroke="white" stroke-width="1.5" stroke-linecap="round" stroke-linejoin="round"/>
</svg>
