<svg width="24" height="25" viewBox="0 0 24 25" fill="none" xmlns="http://www.w3.org/2000/svg">
<path d="M13.0781 12.626C13.0781 13.2214 12.5954 13.7041 12 13.7041C11.4046 13.7041 10.9219 13.2214 10.9219 12.626C10.9219 12.0305 11.4046 11.5479 12 11.5479C12.5954 11.5479 13.0781 12.0305 13.0781 12.626Z" fill="black" stroke="black" stroke-width="0.09375"/>
<path d="M12 7.75098C12.6213 7.75098 13.125 7.2473 13.125 6.62598C13.125 6.00466 12.6213 5.50098 12 5.50098C11.3787 5.50098 10.875 6.00466 10.875 6.62598C10.875 7.2473 11.3787 7.75098 12 7.75098Z" fill="black"/>
<path d="M12 19.751C12.6213 19.751 13.125 19.2473 13.125 18.626C13.125 18.0047 12.6213 17.501 12 17.501C11.3787 17.501 10.875 18.0047 10.875 18.626C10.875 19.2473 11.3787 19.751 12 19.751Z" fill="black"/>
</svg>
