<svg width="160" height="160" viewBox="0 0 160 160" fill="none" xmlns="http://www.w3.org/2000/svg">
<path d="M80 140C113.137 140 140 113.137 140 80C140 46.8629 113.137 20 80 20C46.8629 20 20 46.8629 20 80C20 113.137 46.8629 140 80 140Z" stroke="black" stroke-width="10" stroke-linecap="round" stroke-linejoin="round"/>
<path d="M105.986 94.9976C103.351 99.5564 99.5619 103.342 95.0006 105.973C90.4394 108.605 85.2661 109.99 80.0001 109.99C74.7342 109.99 69.5608 108.605 64.9995 105.974C60.4382 103.342 56.6495 99.5568 54.0137 94.998" stroke="black" stroke-width="10" stroke-linecap="round" stroke-linejoin="round"/>
<path d="M57.5 75C61.6421 75 65 71.6421 65 67.5C65 63.3579 61.6421 60 57.5 60C53.3579 60 50 63.3579 50 67.5C50 71.6421 53.3579 75 57.5 75Z" fill="black"/>
<path d="M95 67.5H110" stroke="black" stroke-width="10" stroke-linecap="round" stroke-linejoin="round"/>
</svg>
