<svg width="25" height="24" viewBox="0 0 25 24" fill="none" xmlns="http://www.w3.org/2000/svg">
<path d="M19.9398 19.6893C21.5507 18.0784 19.4138 13.3297 15.1668 9.08272C10.9199 4.83577 6.17116 2.69883 4.56025 4.30975C2.94934 5.92066 5.08627 10.6694 9.33322 14.9163C13.5802 19.1633 18.3289 21.3002 19.9398 19.6893Z" stroke="white" stroke-width="1.5" stroke-linecap="round" stroke-linejoin="round"/>
<path d="M15.1668 14.9173C19.4138 10.6703 21.5507 5.92159 19.9398 4.31068C18.3289 2.69977 13.5802 4.8367 9.33322 9.08365C5.08627 13.3306 2.94934 18.0793 4.56025 19.6903C6.17116 21.3012 10.9199 19.1642 15.1668 14.9173Z" stroke="white" stroke-width="1.5" stroke-linecap="round" stroke-linejoin="round"/>
<path d="M12.625 12C12.625 12.2071 12.4571 12.375 12.25 12.375C12.0429 12.375 11.875 12.2071 11.875 12C11.875 11.7929 12.0429 11.625 12.25 11.625C12.4571 11.625 12.625 11.7929 12.625 12Z" fill="white" stroke="white" stroke-width="1.5"/>
</svg>
