<svg width="25" height="24" viewBox="0 0 25 24" fill="none" xmlns="http://www.w3.org/2000/svg">
<path d="M20.25 3.75H5.25C4.83579 3.75 4.5 4.08579 4.5 4.5V19.5C4.5 19.9142 4.83579 20.25 5.25 20.25H20.25C20.6642 20.25 21 19.9142 21 19.5V4.5C21 4.08579 20.6642 3.75 20.25 3.75Z" stroke="black" stroke-width="1.5" stroke-linecap="round" stroke-linejoin="round"/>
<path d="M17.25 2.25V5.25" stroke="black" stroke-width="1.5" stroke-linecap="round" stroke-linejoin="round"/>
<path d="M8.25 2.25V5.25" stroke="black" stroke-width="1.5" stroke-linecap="round" stroke-linejoin="round"/>
<path d="M4.5 8.25H21" stroke="black" stroke-width="1.5" stroke-linecap="round" stroke-linejoin="round"/>
<path d="M9.375 11.9996H12L10.5 13.8746C10.7466 13.8746 10.9895 13.9355 11.207 14.0517C11.4245 14.1679 11.61 14.336 11.7471 14.5411C11.8841 14.7461 11.9685 14.9818 11.9927 15.2273C12.017 15.4727 11.9803 15.7203 11.886 15.9482C11.7917 16.1761 11.6426 16.3772 11.452 16.5338C11.2614 16.6903 11.0352 16.7975 10.7933 16.8457C10.5514 16.8939 10.3014 16.8817 10.0653 16.8103C9.82928 16.7388 9.61449 16.6102 9.43999 16.4359" stroke="black" stroke-width="1.5" stroke-linecap="round" stroke-linejoin="round"/>
<path d="M14.25 13.1246L15.75 11.9996V16.8746" stroke="black" stroke-width="1.5" stroke-linecap="round" stroke-linejoin="round"/>
</svg>
