<?xml version="1.0" encoding="UTF-8" standalone="no"?> <!-- Created with Vectornator for iOS (http://vectornator.io/) --><!DOCTYPE svg PUBLIC "-//W3C//DTD SVG 1.1//EN" "http://www.w3.org/Graphics/SVG/1.1/DTD/svg11.dtd">
<svg height="100%" style="fill-rule:nonzero;clip-rule:evenodd;stroke-linecap:round;stroke-linejoin:round;" xmlns:xlink="http://www.w3.org/1999/xlink" xmlns="http://www.w3.org/2000/svg" xml:space="preserve" width="100%" xmlns:vectornator="http://vectornator.io" version="1.1" viewBox="0 0 256 256">
<metadata>
<vectornator:setting key="DimensionsVisible" value="1"/>
<vectornator:setting key="PencilOnly" value="0"/>
<vectornator:setting key="SnapToPoints" value="0"/>
<vectornator:setting key="GuidesVisible" value="1"/>
<vectornator:setting key="CMYKEnabledKey" value="0"/>
<vectornator:setting key="RulersVisible" value="1"/>
<vectornator:setting key="SnapToEdges" value="0"/>
<vectornator:setting key="OutlineMode" value="0"/>
<vectornator:setting key="DisplayWhiteBackground" value="0"/>
<vectornator:setting key="doHistoryDisabled" value="0"/>
<vectornator:setting key="TimeLapseWatermarkDisabled" value="0"/>
<vectornator:setting key="SnapToGuides" value="1"/>
<vectornator:setting key="DynamicGuides" value="0"/>
<vectornator:setting key="IsolateActiveLayer" value="0"/>
<vectornator:setting key="SnapToGrid" value="0"/>
<vectornator:setting key="Units" value="Points"/>
</metadata>
<defs/>
<g id="Untitled" vectornator:layerName="Untitled">
<path d="M0+0L256+0L256+0L256+256L256+256L0+256L0+256L0+0L0+0Z" opacity="1" fill="none"/>
<path stroke="#ffffff" stroke-width="16" d="M96.8873+159.113C51.5865+113.812+28.7925+63.1587+45.9756+45.9756C63.1587+28.7925+113.812+51.5865+159.113+96.8873C204.414+142.188+227.207+192.841+210.024+210.024C192.841+227.207+142.188+204.414+96.8873+159.113Z" fill="none" stroke-linecap="round" opacity="1" stroke-linejoin="round"/>
<path stroke="#ffffff" stroke-width="16" d="M45.9756+210.024C28.7925+192.841+51.5865+142.188+96.8873+96.8873C142.188+51.5865+192.841+28.7925+210.024+45.9756C227.207+63.1587+204.414+113.812+159.113+159.113C113.812+204.414+63.1587+227.207+45.9756+210.024Z" fill="none" stroke-linecap="round" opacity="1" stroke-linejoin="round"/>
<path d="M116+128C116+121.373+121.373+116+128+116C134.627+116+140+121.373+140+128C140+134.627+134.627+140+128+140C121.373+140+116+134.627+116+128Z" opacity="1" fill="#ffffff"/>
</g>
</svg>
