<svg width="25" height="24" viewBox="0 0 25 24" fill="none" xmlns="http://www.w3.org/2000/svg">
<path d="M9.25 15H4C3.80109 15 3.61032 14.921 3.46967 14.7803C3.32902 14.6397 3.25 14.4489 3.25 14.25V9.75C3.25 9.55109 3.32902 9.36032 3.46967 9.21967C3.61032 9.07902 3.80109 9 4 9H9.25V3.75C9.25 3.55109 9.32902 3.36032 9.46967 3.21967C9.61032 3.07902 9.80109 3 10 3H14.5C14.6989 3 14.8897 3.07902 15.0303 3.21967C15.171 3.36032 15.25 3.55109 15.25 3.75V9H20.5C20.6989 9 20.8897 9.07902 21.0303 9.21967C21.171 9.36032 21.25 9.55109 21.25 9.75V14.25C21.25 14.4489 21.171 14.6397 21.0303 14.7803C20.8897 14.921 20.6989 15 20.5 15H15.25V20.25C15.25 20.4489 15.171 20.6397 15.0303 20.7803C14.8897 20.921 14.6989 21 14.5 21H10C9.80109 21 9.61032 20.921 9.46967 20.7803C9.32902 20.6397 9.25 20.4489 9.25 20.25V15Z" stroke="white" stroke-width="1.5" stroke-linecap="round" stroke-linejoin="round"/>
</svg>
