<svg width="25" height="24" viewBox="0 0 25 24" fill="none" xmlns="http://www.w3.org/2000/svg">
<path d="M18.75 11.25H21.2865C21.4258 11.25 21.5623 11.2112 21.6808 11.138C21.7993 11.0648 21.895 10.96 21.9573 10.8354L23.6827 7.38459C23.7684 7.21312 23.7853 7.01532 23.7297 6.83184C23.6742 6.64835 23.5504 6.49311 23.384 6.39799L18.75 3.75" stroke="white" stroke-width="1.5" stroke-linecap="round" stroke-linejoin="round"/>
<path d="M6.75005 11.25H4.21357C4.07429 11.25 3.93776 11.2112 3.81927 11.138C3.70079 11.0648 3.60504 10.96 3.54275 10.8354L1.81734 7.38459C1.7316 7.21312 1.71479 7.01532 1.77034 6.83184C1.8259 6.64835 1.9496 6.49311 2.11606 6.39799L6.75005 3.75" stroke="white" stroke-width="1.5" stroke-linecap="round" stroke-linejoin="round"/>
<path d="M15.75 3.75C15.75 4.54565 15.4339 5.30871 14.8713 5.87132C14.3087 6.43393 13.5456 6.75 12.75 6.75C11.9544 6.75 11.1913 6.43393 10.6287 5.87132C10.0661 5.30871 9.75 4.54565 9.75 3.75H6.75V19.5C6.75 19.6989 6.82902 19.8897 6.96967 20.0303C7.11032 20.171 7.30109 20.25 7.5 20.25H18C18.1989 20.25 18.3897 20.171 18.5303 20.0303C18.671 19.8897 18.75 19.6989 18.75 19.5V3.75H15.75Z" stroke="white" stroke-width="1.5" stroke-linecap="round" stroke-linejoin="round"/>
</svg>
