<svg width="25" height="24" viewBox="0 0 25 24" fill="none" xmlns="http://www.w3.org/2000/svg">
<path d="M20.3288 6.75H5.17135C4.98677 6.75 4.80868 6.81806 4.67115 6.94115C4.53363 7.06425 4.44632 7.23373 4.42593 7.41718L3.0926 19.4172C3.08095 19.522 3.09155 19.6281 3.1237 19.7286C3.15584 19.829 3.20882 19.9216 3.27917 20.0002C3.34951 20.0788 3.43565 20.1417 3.53194 20.1847C3.62824 20.2278 3.73253 20.25 3.83801 20.25H21.6621C21.7676 20.25 21.8719 20.2278 21.9682 20.1847C22.0645 20.1417 22.1506 20.0788 22.221 20.0002C22.2913 19.9216 22.3443 19.829 22.3764 19.7286C22.4086 19.6281 22.4192 19.522 22.4075 19.4172L21.0742 7.41718C21.0538 7.23373 20.9665 7.06425 20.829 6.94115C20.6914 6.81806 20.5134 6.75 20.3288 6.75Z" stroke="white" stroke-width="1.5" stroke-linecap="round" stroke-linejoin="round"/>
<path d="M9 6.75C9 5.75544 9.39509 4.80161 10.0983 4.09835C10.8016 3.39509 11.7554 3 12.75 3C13.7446 3 14.6984 3.39509 15.4017 4.09835C16.1049 4.80161 16.5 5.75544 16.5 6.75" stroke="white" stroke-width="1.5" stroke-linecap="round" stroke-linejoin="round"/>
</svg>
