<svg width="25" height="24" viewBox="0 0 25 24" fill="none" xmlns="http://www.w3.org/2000/svg">
<path d="M2.25 11.25H23.25" stroke="white" stroke-width="1.5" stroke-linecap="round" stroke-linejoin="round"/>
<path d="M21.75 17.25V19.5C21.75 19.6989 21.671 19.8897 21.5303 20.0303C21.3897 20.171 21.1989 20.25 21 20.25H18.75C18.5511 20.25 18.3603 20.171 18.2197 20.0303C18.079 19.8897 18 19.6989 18 19.5V17.25" stroke="white" stroke-width="1.5" stroke-linecap="round" stroke-linejoin="round"/>
<path d="M7.5 17.25V19.5C7.5 19.6989 7.42098 19.8897 7.28033 20.0303C7.13968 20.171 6.94891 20.25 6.75 20.25H4.5C4.30109 20.25 4.11032 20.171 3.96967 20.0303C3.82902 19.8897 3.75 19.6989 3.75 19.5V17.25" stroke="white" stroke-width="1.5" stroke-linecap="round" stroke-linejoin="round"/>
<path d="M6.75 14.25H8.25" stroke="white" stroke-width="1.5" stroke-linecap="round" stroke-linejoin="round"/>
<path d="M17.25 14.25H18.75" stroke="white" stroke-width="1.5" stroke-linecap="round" stroke-linejoin="round"/>
<path d="M21.75 11.25L18.948 4.9454C18.889 4.81282 18.7929 4.70018 18.6713 4.62113C18.5496 4.54208 18.4077 4.5 18.2626 4.5H7.23741C7.09233 4.5 6.95037 4.54208 6.82872 4.62113C6.70708 4.70018 6.61097 4.81282 6.55205 4.9454L3.75 11.25V17.25H21.75V11.25Z" stroke="white" stroke-width="1.5" stroke-linecap="round" stroke-linejoin="round"/>
</svg>
