<svg width="25" height="24" viewBox="0 0 25 24" fill="none" xmlns="http://www.w3.org/2000/svg">
<path d="M20.5 7.5H4C3.58579 7.5 3.25 7.83579 3.25 8.25V11.25C3.25 11.6642 3.58579 12 4 12H20.5C20.9142 12 21.25 11.6642 21.25 11.25V8.25C21.25 7.83579 20.9142 7.5 20.5 7.5Z" stroke="white" stroke-width="1.5" stroke-linecap="round" stroke-linejoin="round"/>
<path d="M19.75 12V18.75C19.75 18.9489 19.671 19.1397 19.5303 19.2803C19.3897 19.421 19.1989 19.5 19 19.5H5.5C5.30109 19.5 5.11032 19.421 4.96967 19.2803C4.82902 19.1397 4.75 18.9489 4.75 18.75V12" stroke="white" stroke-width="1.5" stroke-linecap="round" stroke-linejoin="round"/>
<path d="M12.25 7.5V19.5" stroke="white" stroke-width="1.5" stroke-linecap="round" stroke-linejoin="round"/>
<path d="M16.4926 6.43969C15.432 7.50035 12.25 7.50035 12.25 7.50035C12.25 7.50035 12.25 4.31837 13.3107 3.25771C13.7327 2.83615 14.3049 2.59944 14.9014 2.59961C15.4979 2.59978 16.0699 2.83682 16.4917 3.25862C16.9135 3.68042 17.1506 4.25245 17.1507 4.84897C17.1509 5.44548 16.9142 6.01765 16.4926 6.43969V6.43969Z" stroke="white" stroke-width="1.5" stroke-linecap="round" stroke-linejoin="round"/>
<path d="M8.00735 6.43969C9.06801 7.50035 12.25 7.50035 12.25 7.50035C12.25 7.50035 12.25 4.31837 11.1893 3.25771C10.7673 2.83615 10.1951 2.59944 9.5986 2.59961C9.00209 2.59978 8.43005 2.83682 8.00825 3.25862C7.58645 3.68042 7.34941 4.25245 7.34924 4.84897C7.34907 5.44548 7.58579 6.01765 8.00735 6.43969V6.43969Z" stroke="white" stroke-width="1.5" stroke-linecap="round" stroke-linejoin="round"/>
</svg>
