<svg width="25" height="24" viewBox="0 0 25 24" fill="none" xmlns="http://www.w3.org/2000/svg">
<path d="M21 6.75H4.5C4.08579 6.75 3.75 7.08579 3.75 7.5V19.5C3.75 19.9142 4.08579 20.25 4.5 20.25H21C21.4142 20.25 21.75 19.9142 21.75 19.5V7.5C21.75 7.08579 21.4142 6.75 21 6.75Z" stroke="white" stroke-width="1.5" stroke-linecap="round" stroke-linejoin="round"/>
<path d="M16.5 6.75V5.25C16.5 4.85218 16.342 4.47064 16.0607 4.18934C15.7794 3.90804 15.3978 3.75 15 3.75H10.5C10.1022 3.75 9.72064 3.90804 9.43934 4.18934C9.15804 4.47064 9 4.85218 9 5.25V6.75" stroke="white" stroke-width="1.5" stroke-linecap="round" stroke-linejoin="round"/>
<path d="M3.75 15H21.75" stroke="white" stroke-width="1.5" stroke-linecap="round" stroke-linejoin="round"/>
</svg>
