<svg width="25" height="24" viewBox="0 0 25 24" fill="none" xmlns="http://www.w3.org/2000/svg">
<path d="M12.25 12L21.25 3" stroke="black" stroke-width="1.5" stroke-linecap="round" stroke-linejoin="round"/>
<path d="M18.6141 5.63609C17.0198 4.04498 14.8864 3.11019 12.636 3.01667C10.3855 2.92315 8.18192 3.6777 6.46114 5.13105C4.74037 6.5844 3.62776 8.63068 3.34343 10.8651C3.05911 13.0994 3.62377 15.3592 4.92571 17.1971C6.22765 19.0351 8.17203 20.3175 10.3742 20.7906C12.5763 21.2637 14.8758 20.893 16.8178 19.7519C18.7597 18.6108 20.2026 16.7823 20.861 14.6283C21.5195 12.4743 21.3454 10.1516 20.3734 8.11978" stroke="black" stroke-width="1.5" stroke-linecap="round" stroke-linejoin="round"/>
<path d="M15.4317 8.81804C14.6878 8.07411 13.7066 7.61438 12.6589 7.51875C11.6111 7.42313 10.563 7.69766 9.69665 8.29462C8.8303 8.89159 8.20052 9.77325 7.91676 10.7864C7.633 11.7995 7.7132 12.88 8.14343 13.8401C8.57366 14.8002 9.32671 15.5793 10.2717 16.0418C11.2167 16.5043 12.2939 16.6211 13.316 16.3718C14.3382 16.1225 15.2407 15.523 15.8666 14.6774C16.4926 13.8317 16.8025 12.7935 16.7424 11.7431" stroke="black" stroke-width="1.5" stroke-linecap="round" stroke-linejoin="round"/>
</svg>
