<svg width="25" height="24" viewBox="0 0 25 24" fill="none" xmlns="http://www.w3.org/2000/svg">
<path d="M17.5 17.25H6.79545L4.18015 2.86584C4.14873 2.69303 4.05766 2.53673 3.92281 2.42419C3.78796 2.31164 3.61789 2.25 3.44225 2.25H1.75" stroke="white" stroke-width="1.5" stroke-linecap="round" stroke-linejoin="round"/>
<path d="M7.75 21C8.78553 21 9.625 20.1605 9.625 19.125C9.625 18.0895 8.78553 17.25 7.75 17.25C6.71447 17.25 5.875 18.0895 5.875 19.125C5.875 20.1605 6.71447 21 7.75 21Z" stroke="white" stroke-width="1.5" stroke-linecap="round" stroke-linejoin="round"/>
<path d="M17.5 21C18.5355 21 19.375 20.1605 19.375 19.125C19.375 18.0895 18.5355 17.25 17.5 17.25C16.4645 17.25 15.625 18.0895 15.625 19.125C15.625 20.1605 16.4645 21 17.5 21Z" stroke="white" stroke-width="1.5" stroke-linecap="round" stroke-linejoin="round"/>
<path d="M6.11363 13.5H17.8845C18.2358 13.5 18.5759 13.3767 18.8456 13.1516C19.1153 12.9265 19.2975 12.6139 19.3603 12.2683L20.5 6H4.75" stroke="white" stroke-width="1.5" stroke-linecap="round" stroke-linejoin="round"/>
</svg>
