<svg width="32" height="32" viewBox="0 0 32 32" fill="none" xmlns="http://www.w3.org/2000/svg">
<path d="M16 28C22.6274 28 28 22.6274 28 16C28 9.37258 22.6274 4 16 4C9.37258 4 4 9.37258 4 16C4 22.6274 9.37258 28 16 28Z" stroke="#09182E" stroke-width="2" stroke-miterlimit="10"/>
<path d="M11 20H21" stroke="#09182E" stroke-width="2" stroke-linecap="round" stroke-linejoin="round"/>
<path d="M12.9375 13.5C12.9375 14.2939 12.2939 14.9375 11.5 14.9375C10.7061 14.9375 10.0625 14.2939 10.0625 13.5C10.0625 12.7061 10.7061 12.0625 11.5 12.0625C12.2939 12.0625 12.9375 12.7061 12.9375 13.5Z" fill="black" stroke="#09182E" stroke-width="0.125"/>
<path d="M20.5 15C21.3284 15 22 14.3284 22 13.5C22 12.6716 21.3284 12 20.5 12C19.6716 12 19 12.6716 19 13.5C19 14.3284 19.6716 15 20.5 15Z" fill="black"/>
</svg>
