<svg width="25" height="24" viewBox="0 0 25 24" fill="none" xmlns="http://www.w3.org/2000/svg">
<path d="M13.9835 8.4839L19 13.5004C19 13.5004 12.25 22.5004 2.5 20.2504L18.7992 3.54957C18.9733 3.37537 19.18 3.23718 19.4075 3.14289C19.635 3.04859 19.8788 3.00004 20.1251 3C20.3714 2.99996 20.6153 3.04844 20.8428 3.14267C21.0703 3.2369 21.2771 3.37503 21.4512 3.54917C21.6254 3.72332 21.7635 3.93006 21.8577 4.1576C21.9519 4.38513 22.0004 4.629 22.0004 4.87528C22.0004 5.12155 21.9518 5.36541 21.8575 5.59292C21.7632 5.82043 21.625 6.02713 21.4508 6.20122L16.729 11.2305" stroke="white" stroke-width="1.5" stroke-linecap="round" stroke-linejoin="round"/>
</svg>
