<svg width="25" height="24" viewBox="0 0 25 24" fill="none" xmlns="http://www.w3.org/2000/svg">
<path d="M4.5 6V18C4.5 18.3978 4.65804 18.7794 4.93934 19.0607C5.22064 19.342 5.60218 19.5 6 19.5H21C21.1989 19.5 21.3897 19.421 21.5303 19.2803C21.671 19.1397 21.75 18.9489 21.75 18.75V8.25C21.75 8.05109 21.671 7.86032 21.5303 7.71967C21.3897 7.57902 21.1989 7.5 21 7.5H6C5.60218 7.5 5.22064 7.34196 4.93934 7.06066C4.65804 6.77936 4.5 6.39782 4.5 6ZM4.5 6C4.5 5.60218 4.65804 5.22064 4.93934 4.93934C5.22064 4.65804 5.60218 4.5 6 4.5H18.75" stroke="black" stroke-width="1.5" stroke-linecap="round" stroke-linejoin="round"/>
<path d="M17.625 14.625C18.2463 14.625 18.75 14.1213 18.75 13.5C18.75 12.8787 18.2463 12.375 17.625 12.375C17.0037 12.375 16.5 12.8787 16.5 13.5C16.5 14.1213 17.0037 14.625 17.625 14.625Z" fill="black"/>
</svg>
